<?xml version="1.0" encoding="us-ascii" standalone="no"?><svg xmlns="http://www.w3.org/2000/svg" xmlns:xlink="http://www.w3.org/1999/xlink" contentStyleType="text/css" height="660px" preserveAspectRatio="none" style="width:1013px;height:660px;background:#FFFFFF;" version="1.1" viewBox="0 0 1013 660" width="1013px" zoomAndPan="magnify"><defs/><g><!--class Ayuntamiento--><g id="elem_Ayuntamiento"><rect codeLine="4" fill="#F1F1F1" height="26.4883" id="Ayuntamiento" rx="2.5" ry="2.5" style="stroke:#181818;stroke-width:0.5;" width="102" x="343" y="7"/><text fill="#000000" font-family="sans-serif" font-size="14" lengthAdjust="spacing" textLength="96" x="346" y="25.5352">Ayuntamiento</text></g><!--class Incidencias--><g id="elem_Incidencias"><rect codeLine="7" fill="#F1F1F1" height="26.4883" id="Incidencias" rx="2.5" ry="2.5" style="stroke:#181818;stroke-width:0.5;" width="82" x="361" y="110.49"/><text fill="#000000" font-family="sans-serif" font-size="14" lengthAdjust="spacing" textLength="76" x="364" y="129.0252">Incidencias</text></g><!--class Abono--><g id="elem_Abono"><rect codeLine="10" fill="#F1F1F1" height="26.4883" id="Abono" rx="2.5" ry="2.5" style="stroke:#181818;stroke-width:0.5;" width="52" x="243" y="524.44"/><text fill="#000000" font-family="sans-serif" font-size="14" lengthAdjust="spacing" textLength="46" x="246" y="542.9752">Abono</text></g><!--class Horario--><g id="elem_Horario"><rect codeLine="13" fill="#F1F1F1" height="26.4883" id="Horario" rx="2.5" ry="2.5" style="stroke:#181818;stroke-width:0.5;" width="58" x="890" y="627.93"/><text fill="#000000" font-family="sans-serif" font-size="14" lengthAdjust="spacing" textLength="52" x="893" y="646.4652">Horario</text></g><!--class Ruta--><g id="elem_Ruta"><rect codeLine="16" fill="#F1F1F1" height="26.4883" id="Ruta" rx="2.5" ry="2.5" style="stroke:#181818;stroke-width:0.5;" width="37" x="486.5" y="110.49"/><text fill="#000000" font-family="sans-serif" font-size="14" lengthAdjust="spacing" textLength="31" x="489.5" y="129.0252">Ruta</text></g><!--class Veh?culo--><g id="elem_Veh&#237;culo"><rect codeLine="19" fill="#F1F1F1" height="26.4883" id="Veh&#237;culo" rx="2.5" ry="2.5" style="stroke:#181818;stroke-width:0.5;" width="65" x="416.5" y="213.98"/><text fill="#000000" font-family="sans-serif" font-size="14" lengthAdjust="spacing" textLength="59" x="419.5" y="232.5152">Veh&#237;culo</text></g><!--class Tarifa--><g id="elem_Tarifa"><rect codeLine="22" fill="#F1F1F1" height="26.4883" id="Tarifa" rx="2.5" ry="2.5" style="stroke:#181818;stroke-width:0.5;" width="46" x="197" y="627.93"/><text fill="#000000" font-family="sans-serif" font-size="14" lengthAdjust="spacing" textLength="40" x="200" y="646.4652">Tarifa</text></g><!--class Parada--><g id="elem_Parada"><rect codeLine="25" fill="#F1F1F1" height="26.4883" id="Parada" rx="2.5" ry="2.5" style="stroke:#181818;stroke-width:0.5;" width="53" x="819.5" y="524.44"/><text fill="#000000" font-family="sans-serif" font-size="14" lengthAdjust="spacing" textLength="47" x="822.5" y="542.9752">Parada</text></g><!--class Persona--><g id="elem_Persona"><rect codeLine="28" fill="#F1F1F1" height="26.4883" id="Persona" rx="2.5" ry="2.5" style="stroke:#181818;stroke-width:0.5;" width="61" x="464.5" y="420.96"/><text fill="#000000" font-family="sans-serif" font-size="14" lengthAdjust="spacing" textLength="55" x="467.5" y="439.4952">Persona</text></g><!--class Conductor--><g id="elem_Conductor"><rect codeLine="31" fill="#F1F1F1" height="26.4883" id="Conductor" rx="2.5" ry="2.5" style="stroke:#181818;stroke-width:0.5;" width="79" x="492.5" y="317.47"/><text fill="#000000" font-family="sans-serif" font-size="14" lengthAdjust="spacing" textLength="73" x="495.5" y="336.0052">Conductor</text></g><!--class Pasajero--><g id="elem_Pasajero"><rect codeLine="34" fill="#F1F1F1" height="26.4883" id="Pasajero" rx="2.5" ry="2.5" style="stroke:#181818;stroke-width:0.5;" width="64" x="606" y="317.47"/><text fill="#000000" font-family="sans-serif" font-size="14" lengthAdjust="spacing" textLength="58" x="609" y="336.0052">Pasajero</text></g><!--class Pasajeros--><g id="elem_Pasajeros"><rect fill="#F1F1F1" height="26.4883" id="Pasajeros" rx="2.5" ry="2.5" style="stroke:#181818;stroke-width:0.5;" width="71" x="705.5" y="317.47"/><text fill="#000000" font-family="sans-serif" font-size="14" lengthAdjust="spacing" textLength="65" x="708.5" y="336.0052">Pasajeros</text></g><!--class Conductores--><g id="elem_Conductores"><rect fill="#F1F1F1" height="26.4883" id="Conductores" rx="2.5" ry="2.5" style="stroke:#181818;stroke-width:0.5;" width="94" x="237" y="317.47"/><text fill="#000000" font-family="sans-serif" font-size="14" lengthAdjust="spacing" textLength="88" x="240" y="336.0052">Conductores</text></g><!--link Ayuntamiento to Incidencias--><g id="link_Ayuntamiento_Incidencias"><path codeLine="37" d="M392.11,33.55 C390.56,45.57 388.93,64.35 391,80.49 C392.31,90.71 393.5737,96.2628 396.1237,104.5928 " fill="none" id="Ayuntamiento-to-Incidencias" style="stroke:#181818;stroke-width:1.0;"/><polygon fill="#181818" points="397.88,110.33,399.0704,100.5533,396.4164,105.549,391.4208,102.8951,397.88,110.33" style="stroke:#181818;stroke-width:1.0;"/><text fill="#000000" font-family="sans-serif" font-size="13" lengthAdjust="spacing" textLength="69" x="392" y="77.0584">Administra</text></g><!--link Ayuntamiento to Tarifa--><g id="link_Ayuntamiento_Tarifa"><path codeLine="38" d="M342.88,23.93 C237.52,30.85 6,53.89 6,122.73 C6,122.73 6,122.73 6,538.69 C6,622.36 135.2363,636.8655 190.6963,639.4055 " fill="none" id="Ayuntamiento-to-Tarifa" style="stroke:#181818;stroke-width:1.0;"/><polygon fill="#181818" points="196.69,639.68,187.8824,635.2724,191.6952,639.4512,187.5164,643.2641,196.69,639.68" style="stroke:#181818;stroke-width:1.0;"/><text fill="#000000" font-family="sans-serif" font-size="13" lengthAdjust="spacing" textLength="41" x="7" y="335.7784">Define</text></g><!--link Ayuntamiento to Ruta--><g id="link_Ayuntamiento_Ruta"><path codeLine="39" d="M421.99,33.84 C436.23,41.15 453.18,51.31 466,63.49 C480.46,77.23 489.4728,91.9762 496.1728,104.8662 " fill="none" id="Ayuntamiento-to-Ruta" style="stroke:#181818;stroke-width:1.0;"/><polygon fill="#181818" points="498.94,110.19,498.3384,100.3595,496.634,105.7535,491.24,104.0491,498.94,110.19" style="stroke:#181818;stroke-width:1.0;"/><text fill="#000000" font-family="sans-serif" font-size="13" lengthAdjust="spacing" textLength="69" x="481.01" y="77.0584">Administra</text></g><!--link Ayuntamiento to Abono--><g id="link_Ayuntamiento_Abono"><path codeLine="40" d="M342.8,28.3 C259.06,41.28 102,72.35 102,122.73 C102,122.73 102,122.73 102,435.2 C102,500.17 189.54,523.6946 236.63,531.9446 " fill="none" id="Ayuntamiento-to-Abono" style="stroke:#181818;stroke-width:1.0;"/><polygon fill="#181818" points="242.54,532.98,234.3653,527.4869,237.615,532.1172,232.9847,535.3669,242.54,532.98" style="stroke:#181818;stroke-width:1.0;"/><text fill="#000000" font-family="sans-serif" font-size="13" lengthAdjust="spacing" textLength="52" x="103" y="284.0384">Dispone</text></g><!--link Ayuntamiento to Horario--><g id="link_Ayuntamiento_Horario"><path codeLine="41" d="M445.5,25.03 C585.56,36 963,70.43 963,122.73 C963,122.73 963,122.73 963,538.69 C963,573.06 944.929,604.0634 931.989,622.5634 " fill="none" id="Ayuntamiento-to-Horario" style="stroke:#181818;stroke-width:1.0;"/><polygon fill="#181818" points="928.55,627.48,936.9862,622.3977,931.4158,623.3828,930.4307,617.8124,928.55,627.48" style="stroke:#181818;stroke-width:1.0;"/><text fill="#000000" font-family="sans-serif" font-size="13" lengthAdjust="spacing" textLength="41" x="964" y="335.7784">Define</text></g><!--link Incidencias to Veh?culo--><g id="link_Incidencias_Veh&#237;culo"><path codeLine="43" d="M401.55,137.14 C401.57,149.57 402.93,168.95 410,183.98 C415.44,195.54 420.7616,202.0516 429.1516,209.7216 " fill="none" id="Incidencias-to-Veh&#237;culo" style="stroke:#181818;stroke-width:1.0;"/><polygon fill="#181818" points="433.58,213.77,429.6363,204.7452,429.8897,210.3964,424.2385,210.6497,433.58,213.77" style="stroke:#181818;stroke-width:1.0;"/><text fill="#000000" font-family="sans-serif" font-size="13" lengthAdjust="spacing" textLength="40" x="411" y="180.5484">Afecta</text></g><!--link Abono to Tarifa--><g id="link_Abono_Tarifa"><path codeLine="44" d="M262.99,551.13 C253.59,570.61 238.0978,602.6864 228.6678,622.2264 " fill="none" id="Abono-to-Tarifa" style="stroke:#181818;stroke-width:1.0;stroke-dasharray:7.0,7.0;"/><polygon fill="#181818" points="226.06,627.63,233.5741,621.2631,228.2332,623.127,226.3693,617.786,226.06,627.63" style="stroke:#181818;stroke-width:1.0;"/><text fill="#000000" font-family="sans-serif" font-size="13" lengthAdjust="spacing" textLength="46" x="248.43" y="594.4984">Liquida</text></g><!--link Parada to Horario--><g id="link_Parada_Horario"><path codeLine="45" d="M854.95,551.13 C868.96,570.61 892.4156,603.2198 906.4756,622.7598 " fill="none" id="Parada-to-Horario" style="stroke:#181818;stroke-width:1.0;"/><polygon fill="#181818" points="909.98,627.63,907.9703,617.9884,907.0597,623.5715,901.4766,622.6609,909.98,627.63" style="stroke:#181818;stroke-width:1.0;"/><text fill="#000000" font-family="sans-serif" font-size="13" lengthAdjust="spacing" textLength="34" x="887.87" y="594.4984">Tiene</text></g><!--link Ruta to Veh?culo--><g id="link_Ruta_Veh&#237;culo"><path codeLine="46" d="M498.13,137.18 C487.39,156.66 469.6104,188.8876 458.8204,208.4276 " fill="none" id="Ruta-to-Veh&#237;culo" style="stroke:#181818;stroke-width:1.0;"/><polygon fill="#181818" points="455.92,213.68,463.7722,207.735,458.337,209.303,456.769,203.8678,455.92,213.68" style="stroke:#181818;stroke-width:1.0;"/><text fill="#000000" font-family="sans-serif" font-size="13" lengthAdjust="spacing" textLength="40" x="481.35" y="180.5484">Ocupa</text></g><!--link Ruta to Parada--><g id="link_Ruta_Parada"><path codeLine="47" d="M523.82,126.2 C595.31,132.28 846,158.43 846,226.22 C846,226.22 846,226.22 846,435.2 C846,467.27 846,499.03 846,518.19 " fill="none" id="Ruta-to-Parada" style="stroke:#181818;stroke-width:1.0;"/><polygon fill="#181818" points="846,524.19,850,515.19,846,519.19,842,515.19,846,524.19" style="stroke:#181818;stroke-width:1.0;"/><text fill="#000000" font-family="sans-serif" font-size="13" lengthAdjust="spacing" textLength="45" x="847" y="335.7784">Incluye</text></g><!--link Veh?culo to Conductor--><g id="link_Veh&#237;culo_Conductor"><path codeLine="48" d="M459.18,240.67 C475.11,260.15 501.9616,292.9754 517.9416,312.5154 " fill="none" id="Veh&#237;culo-to-Conductor" style="stroke:#181818;stroke-width:1.0;"/><polygon fill="#181818" points="521.74,317.16,519.1388,307.6609,518.5747,313.2895,512.946,312.7254,521.74,317.16" style="stroke:#181818;stroke-width:1.0;"/><text fill="#000000" font-family="sans-serif" font-size="13" lengthAdjust="spacing" textLength="32" x="496.47" y="284.0384">Lleva</text></g><!--link Veh?culo to Pasajero--><g id="link_Veh&#237;culo_Pasajero"><path codeLine="49" d="M477.04,240.96 C494.47,249.06 517.25,259.96 537,270.47 C565.53,285.65 592.4716,301.6991 612.6616,314.0491 " fill="none" id="Veh&#237;culo-to-Pasajero" style="stroke:#181818;stroke-width:1.0;"/><polygon fill="#181818" points="617.78,317.18,612.1897,309.0715,613.5147,314.571,608.0152,315.896,617.78,317.18" style="stroke:#181818;stroke-width:1.0;"/><text fill="#000000" font-family="sans-serif" font-size="13" lengthAdjust="spacing" textLength="32" x="566.15" y="284.0384">Lleva</text></g><!--link Veh?culo to Tarifa--><g id="link_Veh&#237;culo_Tarifa"><path codeLine="50" d="M416.07,229.92 C363.94,234.59 263.76,252.08 219,317.47 C150,418.25 197.2619,575.7354 213.4019,621.9554 " fill="none" id="Veh&#237;culo-to-Tarifa" style="stroke:#181818;stroke-width:1.0;"/><polygon fill="#181818" points="215.38,627.62,216.1893,617.8044,213.7316,622.8995,208.6365,620.4419,215.38,627.62" style="stroke:#181818;stroke-width:1.0;"/><text fill="#000000" font-family="sans-serif" font-size="13" lengthAdjust="spacing" textLength="34" x="185.61" y="439.2684">Tiene</text></g><!--link Persona to Tarifa--><g id="link_Persona_Tarifa"><path codeLine="52" d="M482.35,447.77 C452.78,476.71 376.13,549.29 303,597.93 C283.88,610.65 265.8959,619.7535 248.8059,627.5735 " fill="none" id="Persona-to-Tarifa" style="stroke:#181818;stroke-width:1.0;"/><polygon fill="#181818" points="243.35,630.07,253.1983,629.9625,247.8966,627.9896,249.8696,622.6879,243.35,630.07" style="stroke:#181818;stroke-width:1.0;"/><text fill="#000000" font-family="sans-serif" font-size="13" lengthAdjust="spacing" textLength="29" x="398.01" y="542.7584">Paga</text></g><!--link Persona to Veh?culo--><g id="link_Persona_Veh&#237;culo"><path codeLine="53" d="M478.54,420.51 C459.75,404.88 430.05,376.37 418,343.96 C404.37,307.3 424.3285,267.1757 437.5685,245.7257 " fill="none" id="Persona-to-Veh&#237;culo" style="stroke:#181818;stroke-width:1.0;"/><polygon fill="#181818" points="440.72,240.62,432.589,246.1776,438.0938,244.8747,439.3966,250.3795,440.72,240.62" style="stroke:#181818;stroke-width:1.0;"/><text fill="#000000" font-family="sans-serif" font-size="13" lengthAdjust="spacing" textLength="55" x="419" y="335.7784">Conduce</text></g><!--link Persona to Abono--><g id="link_Persona_Abono"><path codeLine="54" d="M464.22,438.01 C429.24,442.28 371.4,452.73 328,477.44 C307.06,489.37 292.143,505.9956 281.653,519.5456 " fill="none" id="Persona-to-Abono" style="stroke:#181818;stroke-width:1.0;"/><polygon fill="#181818" points="277.98,524.29,286.6524,519.6221,281.0408,520.3363,280.3265,514.7248,277.98,524.29" style="stroke:#181818;stroke-width:1.0;"/><text fill="#000000" font-family="sans-serif" font-size="13" lengthAdjust="spacing" textLength="56" x="329" y="491.0084">Adquiere</text></g><!--link Persona to Parada--><g id="link_Persona_Parada"><path codeLine="55" d="M525.84,444.12 C593.76,463.75 749.5159,508.7939 813.4859,527.2839 " fill="none" id="Persona-to-Parada" style="stroke:#181818;stroke-width:1.0;stroke-dasharray:7.0,7.0;"/><polygon fill="#181818" points="819.25,528.95,811.7146,522.6082,814.4466,527.5616,809.4932,530.2936,819.25,528.95" style="stroke:#181818;stroke-width:1.0;"/><text fill="#000000" font-family="sans-serif" font-size="13" lengthAdjust="spacing" textLength="33" x="692.52" y="491.0084">Llega</text></g><!--reverse link Conductor to Persona--><g id="link_Conductor_Persona"><path codeLine="57" d="M521.2933,361.0707 C514.1933,380.5407 506.7,401.11 499.57,420.65 " fill="none" id="Conductor-backto-Persona" style="stroke:#181818;stroke-width:1.0;"/><polygon fill="none" points="527.46,344.16,515.6564,359.0151,526.9302,363.1263,527.46,344.16" style="stroke:#181818;stroke-width:1.0;"/><text fill="#000000" font-family="sans-serif" font-size="13" lengthAdjust="spacing" textLength="44" x="516.72" y="387.5284">Hereda</text></g><!--reverse link Pasajero to Persona--><g id="link_Pasajero_Persona"><path codeLine="58" d="M612.0998,356.7888 C598.8898,369.3988 590.46,376.5 570,390.96 C554.25,402.08 535.33,412.71 520.43,420.53 " fill="none" id="Pasajero-backto-Persona" style="stroke:#181818;stroke-width:1.0;"/><polygon fill="none" points="625.12,344.36,607.9569,352.4487,616.2428,361.1289,625.12,344.36" style="stroke:#181818;stroke-width:1.0;"/><text fill="#000000" font-family="sans-serif" font-size="13" lengthAdjust="spacing" textLength="44" x="592.57" y="387.5284">Hereda</text></g><!--reverse link Pasajeros to Persona--><g id="link_Pasajeros_Persona"><path codeLine="60" d="M714.2264,351.4344 C695.8364,364.6544 674.99,378.18 646,390.96 C606.15,408.52 557.12,420.63 525.96,427.24 " fill="none" id="Pasajeros-backto-Persona" style="stroke:#181818;stroke-width:1.0;"/><polygon fill="#181818" points="723.97,344.43,716.7634,344.6843,714.2264,351.4344,721.433,351.1801,723.97,344.43" style="stroke:#181818;stroke-width:1.0;"/></g><!--reverse link Conductores to Persona--><g id="link_Conductores_Persona"><path codeLine="61" d="M310.4033,351.4376 C328.1233,364.4076 347.6,377.46 375,390.96 C404.12,405.3 439.37,417.1 464.1,424.55 " fill="none" id="Conductores-backto-Persona" style="stroke:#181818;stroke-width:1.0;"/><polygon fill="#181818" points="300.72,344.35,303.1991,351.1216,310.4033,351.4376,307.9242,344.666,300.72,344.35" style="stroke:#181818;stroke-width:1.0;"/></g><!--SRC=[VLBBIiH04BpFLynPo7v0427eOGN1HHRllPEE6KbcTkSXBEed-HN-c9tdf7U3bq2gggkhAwbrYHBROpZB5ji3EY_g3bBQgGQ5K0ruBujpD05QZIPO-Ic-9_pHA1BJ0_mIBWxMCDtMEd2QGIynmFBz5UlV7nKR9jhJLCLaEt1GSeGoMyEWUslAg89rVDB3ExhHdrsKPNVib5mMPQkDzi71jN8CbSi7hBJ1Qq5_slyUGqDaeVtHhdbCZSrRn39WfqY5qQeALQ0rlUjciyZuf4zHbo36thZrdlQXwEDUEZwhU8H4ZUDvLrCJpoYIjgDJuRInmG-uuEVkr-avxH18J9-KSJju0yOiumu1aF5JnqL95Q1BP5VGV13b8L-HBhZzohBvfyhbbYRx_iOBrkcPz_8cySaLEVu7]--></g></svg>