<?xml version="1.0" encoding="us-ascii" standalone="no"?><svg xmlns="http://www.w3.org/2000/svg" xmlns:xlink="http://www.w3.org/1999/xlink" contentStyleType="text/css" height="597px" preserveAspectRatio="none" style="width:764px;height:597px;background:#FFFFFF;" version="1.1" viewBox="0 0 764 597" width="764px" zoomAndPan="magnify"><defs/><g><!--class Ruta13: Ruta--><g id="elem_Ruta13: Ruta"><rect codeLine="4" fill="#F1F1F1" height="83.9531" id="Ruta13: Ruta" rx="2.5" ry="2.5" style="stroke:#181818;stroke-width:0.5;" width="163" x="7" y="7"/><text fill="#000000" font-family="sans-serif" font-size="14" lengthAdjust="spacing" textLength="88" x="44.5" y="25.5352">Ruta13: Ruta</text><line style="stroke:#181818;stroke-width:0.5;" x1="8" x2="169" y1="33.4883" y2="33.4883"/><text fill="#000000" font-family="sans-serif" font-size="14" lengthAdjust="spacing" textLength="93" x="13" y="51.0234">Estado: activa</text><text fill="#000000" font-family="sans-serif" font-size="14" lengthAdjust="spacing" textLength="151" x="13" y="67.5117">Puntualidad: Atrasada</text><text fill="#000000" font-family="sans-serif" font-size="14" lengthAdjust="spacing" textLength="92" x="13" y="84">Destino: Lluja</text></g><!--class Veh?culo1: Veh?culo--><g id="elem_Veh&#237;culo1: Veh&#237;culo"><rect codeLine="10" fill="#F1F1F1" height="100.4414" id="Veh&#237;culo1: Veh&#237;culo" rx="2.5" ry="2.5" style="stroke:#181818;stroke-width:0.5;" width="141" x="377" y="167.95"/><text fill="#000000" font-family="sans-serif" font-size="14" lengthAdjust="spacing" textLength="135" x="380" y="186.4852">Veh&#237;culo1: Veh&#237;culo</text><line style="stroke:#181818;stroke-width:0.5;" x1="378" x2="517" y1="194.4383" y2="194.4383"/><text fill="#000000" font-family="sans-serif" font-size="14" lengthAdjust="spacing" textLength="107" x="383" y="211.9734">Capacidad: 100</text><text fill="#000000" font-family="sans-serif" font-size="14" lengthAdjust="spacing" textLength="107" x="383" y="228.4617">Modelo: XM100</text><text fill="#000000" font-family="sans-serif" font-size="14" lengthAdjust="spacing" textLength="85" x="383" y="244.95">Asientos: 50</text><text fill="#000000" font-family="sans-serif" font-size="14" lengthAdjust="spacing" textLength="63" x="383" y="261.4383">Tipo: Bus</text></g><!--class TarifaPasajero: Tarifa--><g id="elem_TarifaPasajero: Tarifa"><rect codeLine="17" fill="#F1F1F1" height="67.4648" id="TarifaPasajero: Tarifa" rx="2.5" ry="2.5" style="stroke:#181818;stroke-width:0.5;" width="152" x="336.5" y="514.59"/><text fill="#000000" font-family="sans-serif" font-size="14" lengthAdjust="spacing" textLength="146" x="339.5" y="533.1252">TarifaPasajero: Tarifa</text><line style="stroke:#181818;stroke-width:0.5;" x1="337.5" x2="487.5" y1="541.0783" y2="541.0783"/><text fill="#000000" font-family="sans-serif" font-size="14" lengthAdjust="spacing" textLength="79" x="342.5" y="558.6134">Costo: 1.30</text><text fill="#000000" font-family="sans-serif" font-size="14" lengthAdjust="spacing" textLength="103" x="342.5" y="575.1017">TipoTarifa: Bus</text></g><!--class TarifaConductor: Tarifa--><g id="elem_TarifaConductor: Tarifa"><rect codeLine="22" fill="#F1F1F1" height="67.4648" id="TarifaConductor: Tarifa" rx="2.5" ry="2.5" style="stroke:#181818;stroke-width:0.5;" width="167" x="575" y="514.59"/><text fill="#000000" font-family="sans-serif" font-size="14" lengthAdjust="spacing" textLength="161" x="578" y="533.1252">TarifaConductor: Tarifa</text><line style="stroke:#181818;stroke-width:0.5;" x1="576" x2="741" y1="541.0783" y2="541.0783"/><text fill="#000000" font-family="sans-serif" font-size="14" lengthAdjust="spacing" textLength="79" x="581" y="558.6134">Costo: 0.50</text><text fill="#000000" font-family="sans-serif" font-size="14" lengthAdjust="spacing" textLength="103" x="581" y="575.1017">TipoTarifa: Bus</text></g><!--class Parada1: Parada--><g id="elem_Parada1: Parada"><rect codeLine="27" fill="#F1F1F1" height="83.9531" id="Parada1: Parada" rx="2.5" ry="2.5" style="stroke:#181818;stroke-width:0.5;" width="178" x="71.5" y="506.35"/><text fill="#000000" font-family="sans-serif" font-size="14" lengthAdjust="spacing" textLength="111" x="105" y="524.8852">Parada1: Parada</text><line style="stroke:#181818;stroke-width:0.5;" x1="72.5" x2="248.5" y1="532.8383" y2="532.8383"/><text fill="#000000" font-family="sans-serif" font-size="14" lengthAdjust="spacing" textLength="154" x="77.5" y="550.3734">Nombre: Manuel Llano</text><text fill="#000000" font-family="sans-serif" font-size="14" lengthAdjust="spacing" textLength="81" x="77.5" y="566.8617">N&#250;mero: 13</text><text fill="#000000" font-family="sans-serif" font-size="14" lengthAdjust="spacing" textLength="166" x="77.5" y="583.35">Corresponencia: Ruta13</text></g><!--class Persona1: Persona--><g id="elem_Persona1: Persona"><rect codeLine="33" fill="#F1F1F1" height="83.9531" id="Persona1: Persona" rx="2.5" ry="2.5" style="stroke:#181818;stroke-width:0.5;" width="188" x="230.5" y="345.39"/><text fill="#000000" font-family="sans-serif" font-size="14" lengthAdjust="spacing" textLength="127" x="261" y="363.9252">Persona1: Persona</text><line style="stroke:#181818;stroke-width:0.5;" x1="231.5" x2="417.5" y1="371.8783" y2="371.8783"/><text fill="#000000" font-family="sans-serif" font-size="14" lengthAdjust="spacing" textLength="175" x="236.5" y="389.4134">Nombre: Santiago G&#243;mez</text><text fill="#000000" font-family="sans-serif" font-size="14" lengthAdjust="spacing" textLength="121" x="236.5" y="405.9017">Permiso: Pasajero</text><text fill="#000000" font-family="sans-serif" font-size="14" lengthAdjust="spacing" textLength="176" x="236.5" y="422.39">Abono: Tarjeta Trimestral</text></g><!--class Persona2: Persona--><g id="elem_Persona2: Persona"><rect codeLine="39" fill="#F1F1F1" height="83.9531" id="Persona2: Persona" rx="2.5" ry="2.5" style="stroke:#181818;stroke-width:0.5;" width="198" x="559.5" y="345.39"/><text fill="#000000" font-family="sans-serif" font-size="14" lengthAdjust="spacing" textLength="127" x="595" y="363.9252">Persona2: Persona</text><line style="stroke:#181818;stroke-width:0.5;" x1="560.5" x2="756.5" y1="371.8783" y2="371.8783"/><text fill="#000000" font-family="sans-serif" font-size="14" lengthAdjust="spacing" textLength="130" x="565.5" y="389.4134">Nombre: Juan Toca</text><text fill="#000000" font-family="sans-serif" font-size="14" lengthAdjust="spacing" textLength="136" x="565.5" y="405.9017">Permiso: Conductor</text><text fill="#000000" font-family="sans-serif" font-size="14" lengthAdjust="spacing" textLength="186" x="565.5" y="422.39">Abono: Especial Conductor</text></g><!--link Ruta13: Ruta to Veh?culo1: Veh?culo--><g id="link_Ruta13: Ruta_Veh&#237;culo1: Veh&#237;culo"><path codeLine="45" d="M170.41,88.12 C232.6,117.09 311.8009,153.9771 371.1109,181.5971 " fill="none" id="Ruta13: Ruta-to-Veh&#237;culo1: Veh&#237;culo" style="stroke:#181818;stroke-width:1.0;"/><polygon fill="#181818" points="376.55,184.13,370.0799,176.7045,372.0174,182.0192,366.7027,183.9567,376.55,184.13" style="stroke:#181818;stroke-width:1.0;"/><text fill="#000000" font-family="sans-serif" font-size="13" lengthAdjust="spacing" textLength="40" x="269" y="134.5184">Ocupa</text></g><!--link Ruta13: Ruta to Parada1: Parada--><g id="link_Ruta13: Ruta_Parada1: Parada"><path codeLine="46" d="M91.74,91.43 C98.15,167.99 114.23,336.51 141.5,476.35 C143.38,485.99 144.3269,490.4465 146.8569,500.0865 " fill="none" id="Ruta13: Ruta-to-Parada1: Parada" style="stroke:#181818;stroke-width:1.0;"/><polygon fill="#181818" points="148.38,505.89,149.9643,496.1694,147.1107,501.0538,142.2264,498.2002,148.38,505.89" style="stroke:#181818;stroke-width:1.0;"/><text fill="#000000" font-family="sans-serif" font-size="13" lengthAdjust="spacing" textLength="76" x="116.68" y="311.9584">Se compone</text></g><!--link Veh?culo1: Veh?culo to Parada1: Parada--><g id="link_Veh&#237;culo1: Veh&#237;culo_Parada1: Parada"><path codeLine="47" d="M376.64,231.94 C313.57,247.32 224.41,279.77 178.5,345.39 C145.41,392.69 146.5639,456.3091 152.2139,500.1991 " fill="none" id="Veh&#237;culo1: Veh&#237;culo-to-Parada1: Parada" style="stroke:#181818;stroke-width:1.0;"/><polygon fill="#181818" points="152.98,506.15,155.7982,496.7129,152.3416,501.1909,147.8636,497.7344,152.98,506.15" style="stroke:#181818;stroke-width:1.0;"/><text fill="#000000" font-family="sans-serif" font-size="13" lengthAdjust="spacing" textLength="33" x="179.5" y="392.4384">Llega</text></g><!--link Persona1: Persona to Parada1: Parada--><g id="link_Persona1: Persona_Parada1: Parada"><path codeLine="48" d="M281.84,429.72 C257.64,453.17 231.748,478.2637 207.538,501.7337 " fill="none" id="Persona1: Persona-to-Parada1: Parada" style="stroke:#181818;stroke-width:1.0;"/><polygon fill="#181818" points="203.23,505.91,212.4761,502.5175,206.82,502.4298,206.9078,496.7736,203.23,505.91" style="stroke:#181818;stroke-width:1.0;"/><text fill="#000000" font-family="sans-serif" font-size="13" lengthAdjust="spacing" textLength="33" x="248.42" y="472.9184">Llega</text></g><!--link Persona1: Persona to TarifaPasajero: Tarifa--><g id="link_Persona1: Persona_TarifaPasajero: Tarifa"><path codeLine="49" d="M347.39,429.72 C361.96,456.03 377.6525,484.3915 391.2525,508.9415 " fill="none" id="Persona1: Persona-to-TarifaPasajero: Tarifa" style="stroke:#181818;stroke-width:1.0;"/><polygon fill="#181818" points="394.16,514.19,393.2977,504.379,391.7371,509.8163,386.2998,508.2556,394.16,514.19" style="stroke:#181818;stroke-width:1.0;"/><text fill="#000000" font-family="sans-serif" font-size="13" lengthAdjust="spacing" textLength="29" x="372.14" y="472.9184">Paga</text></g><!--link Persona2: Persona to TarifaConductor: Tarifa--><g id="link_Persona2: Persona_TarifaConductor: Tarifa"><path codeLine="50" d="M658.5,429.72 C658.5,456.03 658.5,483.64 658.5,508.19 " fill="none" id="Persona2: Persona-to-TarifaConductor: Tarifa" style="stroke:#181818;stroke-width:1.0;"/><polygon fill="#181818" points="658.5,514.19,662.5,505.19,658.5,509.19,654.5,505.19,658.5,514.19" style="stroke:#181818;stroke-width:1.0;"/><text fill="#000000" font-family="sans-serif" font-size="13" lengthAdjust="spacing" textLength="29" x="659.5" y="472.9184">Paga</text></g><!--link Veh?culo1: Veh?culo to Persona1: Persona--><g id="link_Veh&#237;culo1: Veh&#237;culo_Persona1: Persona"><path codeLine="51" d="M410.93,268.88 C393.08,293.14 375.4255,317.147 358.4755,340.187 " fill="none" id="Veh&#237;culo1: Veh&#237;culo-to-Persona1: Persona" style="stroke:#181818;stroke-width:1.0;"/><polygon fill="#181818" points="354.92,345.02,363.4753,340.1408,357.883,340.9925,357.0313,335.4001,354.92,345.02" style="stroke:#181818;stroke-width:1.0;"/><text fill="#000000" font-family="sans-serif" font-size="13" lengthAdjust="spacing" textLength="32" x="387" y="311.9584">Lleva</text></g><!--link Veh?culo1: Veh?culo to Persona2: Persona--><g id="link_Veh&#237;culo1: Veh&#237;culo_Persona2: Persona"><path codeLine="52" d="M510.24,268.88 C540.85,293.14 572.5378,318.2532 601.6078,341.2932 " fill="none" id="Veh&#237;culo1: Veh&#237;culo-to-Persona2: Persona" style="stroke:#181818;stroke-width:1.0;"/><polygon fill="#181818" points="606.31,345.02,601.7412,336.295,602.3915,341.9143,596.7721,342.5646,606.31,345.02" style="stroke:#181818;stroke-width:1.0;"/><text fill="#000000" font-family="sans-serif" font-size="13" lengthAdjust="spacing" textLength="32" x="566.63" y="311.9584">Lleva</text></g><!--link Persona2: Persona to Veh?culo1: Veh?culo--><g id="link_Persona2: Persona_Veh&#237;culo1: Veh&#237;culo"><path codeLine="54" d="M641.03,345.22 C632.67,329.12 621.42,311.43 607.5,298.39 C582.16,274.66 553.8833,258.8971 523.8833,246.0171 " fill="none" id="Persona2: Persona-to-Veh&#237;culo1: Veh&#237;culo" style="stroke:#181818;stroke-width:1.0;"/><polygon fill="#181818" points="518.37,243.65,525.062,250.8762,522.9645,245.6226,528.2181,243.525,518.37,243.65" style="stroke:#181818;stroke-width:1.0;"/><text fill="#000000" font-family="sans-serif" font-size="13" lengthAdjust="spacing" textLength="55" x="623.17" y="311.9584">Conduce</text></g><!--link Veh?culo1: Veh?culo to TarifaPasajero: Tarifa--><g id="link_Veh&#237;culo1: Veh&#237;culo_TarifaPasajero: Tarifa"><path codeLine="53" d="M446.57,268.6 C445.31,311.31 442.37,374.59 435.5,429.35 C431.88,458.23 426.6571,484.8097 421.4871,508.3497 " fill="none" id="Veh&#237;culo1: Veh&#237;culo-to-TarifaPasajero: Tarifa" style="stroke:#181818;stroke-width:1.0;"/><polygon fill="#181818" points="420.2,514.21,426.0375,506.2776,421.2726,509.3264,418.2237,504.5615,420.2,514.21" style="stroke:#181818;stroke-width:1.0;"/><text fill="#000000" font-family="sans-serif" font-size="13" lengthAdjust="spacing" textLength="34" x="444.03" y="392.4384">Tiene</text></g><!--SRC=[dLF9JiCm4BtdAopkeAOLbnoGs8I4A5GG8QvJPw2kl4HUa03nIPouSUsFCObf2MtCbakS6R_tPjvCPg92Xghs3qoXcg9rsQm9SM6vn2pZ4fnZMvV1GpugMFFUOayPe-VOUQXCmO1xSGzjQ1Aq3o151LN1zhq51rNC7A7pGjFjCndca3slcAznjdZXGPgyOAlpKk8GQk2HBHyCsj3OL2Y9vsQyZEmxWTeRLx3T62X5JHSEWkl8b635BKoee3bQoiRlbOvndeBvpkYJ8TxevpaqkWhS6viW6kpi_aGq0KlUKDFni2GuDsfgiM1Zq04bkGNQnCJYJRMLvwCF9MlHrKQZvWBYP2ZL4Q1P6jqgnDEwn1LeB-3Ei9F5gyB7E42qIZZJL1MTYWvFZOwUpT43AwrGD4uBSbDkc9Gx3Q1PQJXy5LfPsLKwTZLILxAJ9QMrBTpUtakkJy4kUAYX5xBXF5b12szKOsQMOan1poJUaKwFs_z4f3QreUZWXlsudirS0hzjRBEOjj3xt-66VyMbcopfPyPqbybvnyOnUmS0]--></g></svg>