<?xml version="1.0" encoding="us-ascii" standalone="no"?><svg xmlns="http://www.w3.org/2000/svg" xmlns:xlink="http://www.w3.org/1999/xlink" contentStyleType="text/css" height="1534px" preserveAspectRatio="none" style="width:1116px;height:1534px;background:#FFFFFF;" version="1.1" viewBox="0 0 1116 1534" width="1116px" zoomAndPan="magnify"><defs/><g><!--cluster RutaInactiva--><g id="cluster_RutaInactiva"><path d="M19.5,81 L358.5,81 A12.5,12.5 0 0 1 371,93.5 L371,102.4883 L7,102.4883 L7,93.5 A12.5,12.5 0 0 1 19.5,81 " fill="#F1F1F1" style="stroke:#F1F1F1;stroke-width:1.0;"/><rect fill="none" height="554.48" rx="12.5" ry="12.5" style="stroke:#181818;stroke-width:0.5;" width="364" x="7" y="81"/><line style="stroke:#181818;stroke-width:0.5;" x1="7" x2="371" y1="102.4883" y2="102.4883"/><text fill="#000000" font-family="sans-serif" font-size="14" lengthAdjust="spacing" textLength="83" x="147.5" y="98.5352">RutaInactiva</text></g><!--cluster Veh?culoDisponible--><g id="cluster_Veh&#237;culoDisponible"><path d="M423.5,199 L766.5,199 A12.5,12.5 0 0 1 779,211.5 L779,220.4883 L411,220.4883 L411,211.5 A12.5,12.5 0 0 1 423.5,199 " fill="#F1F1F1" style="stroke:#F1F1F1;stroke-width:1.0;"/><rect fill="none" height="863.73" rx="12.5" ry="12.5" style="stroke:#181818;stroke-width:0.5;" width="368" x="411" y="199"/><line style="stroke:#181818;stroke-width:0.5;" x1="411" x2="779" y1="220.4883" y2="220.4883"/><text fill="#000000" font-family="sans-serif" font-size="14" lengthAdjust="spacing" textLength="132" x="529" y="216.5352">Veh&#237;culoDisponible</text></g><ellipse cx="183" cy="134" fill="#222222" rx="10" ry="10" style="stroke:#222222;stroke-width:1.0;"/><g id="RutaInactiva.RutaNoDisponible"><rect fill="#F1F1F1" height="50" rx="12.5" ry="12.5" style="stroke:#181818;stroke-width:0.5;" width="143" x="111.5" y="227"/><line style="stroke:#181818;stroke-width:0.5;" x1="111.5" x2="254.5" y1="253.4883" y2="253.4883"/><text fill="#000000" font-family="sans-serif" font-size="14" lengthAdjust="spacing" textLength="123" x="121.5" y="245.5352">RutaNoDisponible</text></g><path d="M43.75,354 L322.25,354 A12.5,12.5 0 0 1 334.75,366.5 L334.75,380.4883 L31.25,380.4883 L31.25,366.5 A12.5,12.5 0 0 1 43.75,354 " fill="#F1F1F1" style="stroke:#F1F1F1;stroke-width:1.0;"/><rect fill="none" height="257.4883" rx="12.5" ry="12.5" style="stroke:#181818;stroke-width:0.5;" width="303.5" x="31.25" y="354"/><line style="stroke:#181818;stroke-width:0.5;" x1="31.25" x2="334.75" y1="380.4883" y2="380.4883"/><text fill="#000000" font-family="sans-serif" font-size="14" lengthAdjust="spacing" textLength="72" x="147" y="372.5352">RutaActiva</text><ellipse cx="185.25" cy="401.4883" fill="#222222" rx="10" ry="10" style="stroke:#222222;stroke-width:1.0;"/><g id="RutaInactiva.RutaActiva.RutaEnCurso"><rect fill="#F1F1F1" height="50" rx="12.5" ry="12.5" style="stroke:#181818;stroke-width:0.5;" width="109" x="130.75" y="448.4883"/><line style="stroke:#181818;stroke-width:0.5;" x1="130.75" x2="239.75" y1="474.9766" y2="474.9766"/><text fill="#000000" font-family="sans-serif" font-size="14" lengthAdjust="spacing" textLength="89" x="140.75" y="467.0234">RutaEnCurso</text></g><g id="RutaInactiva.RutaActiva.RutaCompletada"><rect fill="#F1F1F1" height="50" rx="12.5" ry="12.5" style="stroke:#181818;stroke-width:0.5;" width="134" x="43.25" y="551.4883"/><line style="stroke:#181818;stroke-width:0.5;" x1="43.25" x2="177.25" y1="577.9766" y2="577.9766"/><text fill="#000000" font-family="sans-serif" font-size="14" lengthAdjust="spacing" textLength="114" x="53.25" y="570.0234">RutaCompletada</text></g><g id="RutaInactiva.RutaActiva.RutaSuspendida"><rect fill="#F1F1F1" height="50" rx="12.5" ry="12.5" style="stroke:#181818;stroke-width:0.5;" width="131" x="194.75" y="551.4883"/><line style="stroke:#181818;stroke-width:0.5;" x1="194.75" x2="325.75" y1="577.9766" y2="577.9766"/><text fill="#000000" font-family="sans-serif" font-size="14" lengthAdjust="spacing" textLength="111" x="204.75" y="570.0234">RutaSuspendida</text></g><!--link *start*RutaActiva to RutaEnCurso--><g id="link_*start*RutaActiva_RutaEnCurso"><path d="M185.25,411.9283 C185.25,421.1883 185.25,429.6783 185.25,442.1683 " fill="none" id="*start*RutaActiva-to-RutaEnCurso" style="stroke:#181818;stroke-width:1.0;"/><polygon fill="#181818" points="185.25,448.1683,189.25,439.1683,185.25,443.1683,181.25,439.1683,185.25,448.1683" style="stroke:#181818;stroke-width:1.0;"/></g><!--link RutaEnCurso to RutaCompletada--><g id="link_RutaEnCurso_RutaCompletada"><path d="M167.09,498.9383 C155.3,514.8183 143.5766,530.6108 131.8166,546.4508 " fill="none" id="RutaEnCurso-to-RutaCompletada" style="stroke:#181818;stroke-width:1.0;"/><polygon fill="#181818" points="128.24,551.2683,136.8165,546.4265,131.2205,547.2537,130.3933,541.6577,128.24,551.2683" style="stroke:#181818;stroke-width:1.0;"/><text fill="#000000" font-family="sans-serif" font-size="13" lengthAdjust="spacing" textLength="53" x="153.24" y="530.0566">Finalizar</text></g><!--link RutaEnCurso to RutaSuspendida--><g id="link_RutaEnCurso_RutaSuspendida"><path d="M203.41,498.9383 C215.2,514.8183 226.9234,530.6108 238.6834,546.4508 " fill="none" id="RutaEnCurso-to-RutaSuspendida" style="stroke:#181818;stroke-width:1.0;"/><polygon fill="#181818" points="242.26,551.2683,240.1067,541.6577,239.2795,547.2537,233.6835,546.4265,242.26,551.2683" style="stroke:#181818;stroke-width:1.0;"/><text fill="#000000" font-family="sans-serif" font-size="13" lengthAdjust="spacing" textLength="65" x="228.24" y="530.0566">Suspender</text></g><ellipse cx="531" cy="252" fill="#222222" rx="10" ry="10" style="stroke:#222222;stroke-width:1.0;"/><g id="Veh&#237;culoDisponible.Veh&#237;culoInactivo"><rect fill="#F1F1F1" height="50" rx="12.5" ry="12.5" style="stroke:#181818;stroke-width:0.5;" width="132" x="465" y="457.74"/><line style="stroke:#181818;stroke-width:0.5;" x1="465" x2="597" y1="484.2283" y2="484.2283"/><text fill="#000000" font-family="sans-serif" font-size="14" lengthAdjust="spacing" textLength="112" x="475" y="476.2752">Veh&#237;culoInactivo</text></g><g id="Veh&#237;culoDisponible.Veh&#237;culoEnRuta"><rect fill="#F1F1F1" height="50" rx="12.5" ry="12.5" style="stroke:#181818;stroke-width:0.5;" width="127" x="467.5" y="706.48"/><line style="stroke:#181818;stroke-width:0.5;" x1="467.5" x2="594.5" y1="732.9683" y2="732.9683"/><text fill="#000000" font-family="sans-serif" font-size="14" lengthAdjust="spacing" textLength="107" x="477.5" y="725.0152">Veh&#237;culoEnRuta</text></g><g id="Veh&#237;culoDisponible.Veh&#237;culoEnMantenimiento"><rect fill="#F1F1F1" height="50" rx="12.5" ry="12.5" style="stroke:#181818;stroke-width:0.5;" width="199" x="435.5" y="988.73"/><line style="stroke:#181818;stroke-width:0.5;" x1="435.5" x2="634.5" y1="1015.2183" y2="1015.2183"/><text fill="#000000" font-family="sans-serif" font-size="14" lengthAdjust="spacing" textLength="179" x="445.5" y="1007.2652">Veh&#237;culoEnMantenimiento</text></g><ellipse cx="361" cy="16" fill="#222222" rx="10" ry="10" style="stroke:#222222;stroke-width:1.0;"/><path d="M815.73,833.48 L1090.26,833.48 A12.5,12.5 0 0 1 1102.76,845.98 L1102.76,859.9683 L803.23,859.9683 L803.23,845.98 A12.5,12.5 0 0 1 815.73,833.48 " fill="#F1F1F1" style="stroke:#F1F1F1;stroke-width:1.0;"/><rect fill="none" height="360.4883" rx="12.5" ry="12.5" style="stroke:#181818;stroke-width:0.5;" width="299.53" x="803.23" y="833.48"/><line style="stroke:#181818;stroke-width:0.5;" x1="803.23" x2="1102.76" y1="859.9683" y2="859.9683"/><text fill="#000000" font-family="sans-serif" font-size="14" lengthAdjust="spacing" textLength="55" x="925.495" y="852.0152">Persona</text><ellipse cx="916.23" cy="880.9683" fill="#222222" rx="10" ry="10" style="stroke:#222222;stroke-width:1.0;"/><g id="Persona.EsperandoEnLaParada"><rect fill="#F1F1F1" height="50" rx="12.5" ry="12.5" style="stroke:#181818;stroke-width:0.5;" width="172" x="830.23" y="927.9683"/><line style="stroke:#181818;stroke-width:0.5;" x1="830.23" x2="1002.23" y1="954.4566" y2="954.4566"/><text fill="#000000" font-family="sans-serif" font-size="14" lengthAdjust="spacing" textLength="152" x="840.23" y="946.5034">EsperandoEnLaParada</text></g><g id="Persona.Viajando"><rect fill="#F1F1F1" height="50" rx="12.5" ry="12.5" style="stroke:#181818;stroke-width:0.5;" width="80" x="815.23" y="1030.9683"/><line style="stroke:#181818;stroke-width:0.5;" x1="815.23" x2="895.23" y1="1057.4566" y2="1057.4566"/><text fill="#000000" font-family="sans-serif" font-size="14" lengthAdjust="spacing" textLength="60" x="825.23" y="1049.5034">Viajando</text></g><g id="Persona.Descansando"><rect fill="#F1F1F1" height="50" rx="12.5" ry="12.5" style="stroke:#181818;stroke-width:0.5;" width="111" x="860.73" y="1133.9683"/><line style="stroke:#181818;stroke-width:0.5;" x1="860.73" x2="971.73" y1="1160.4566" y2="1160.4566"/><text fill="#000000" font-family="sans-serif" font-size="14" lengthAdjust="spacing" textLength="91" x="870.73" y="1152.5034">Descansando</text></g><!--link *start*Persona to EsperandoEnLaParada--><g id="link_*start*Persona_EsperandoEnLaParada"><path d="M916.23,891.4083 C916.23,900.6683 916.23,909.1583 916.23,921.6483 " fill="none" id="*start*Persona-to-EsperandoEnLaParada" style="stroke:#181818;stroke-width:1.0;"/><polygon fill="#181818" points="916.23,927.6483,920.23,918.6483,916.23,922.6483,912.23,918.6483,916.23,927.6483" style="stroke:#181818;stroke-width:1.0;"/></g><!--link EsperandoEnLaParada to Viajando--><g id="link_EsperandoEnLaParada_Viajando"><path d="M872.84,978.3483 C867.04,983.4283 861.85,989.3083 858.23,995.9683 C852.55,1006.4283 851.1589,1013.5231 851.6089,1024.7131 " fill="none" id="EsperandoEnLaParada-to-Viajando" style="stroke:#181818;stroke-width:1.0;"/><polygon fill="#181818" points="851.85,1030.7083,855.4851,1021.5548,851.6491,1025.7123,847.4916,1021.8763,851.85,1030.7083" style="stroke:#181818;stroke-width:1.0;"/><text fill="#000000" font-family="sans-serif" font-size="13" lengthAdjust="spacing" textLength="104" x="859.23" y="1009.5366">Subir al veh&#237;culo</text></g><!--link Viajando to Descansando--><g id="link_Viajando_Descansando"><path d="M850.24,1081.4583 C849.19,1092.5783 849.75,1105.5383 855.23,1115.9683 C858.76,1122.6883 859.3533,1124.6233 865.1833,1129.6433 " fill="none" id="Viajando-to-Descansando" style="stroke:#181818;stroke-width:1.0;"/><polygon fill="#181818" points="869.73,1133.5583,865.5199,1124.6546,865.9411,1130.2958,860.2999,1130.7169,869.73,1133.5583" style="stroke:#181818;stroke-width:1.0;"/><text fill="#000000" font-family="sans-serif" font-size="13" lengthAdjust="spacing" textLength="107" x="856.23" y="1112.5366">Salir del veh&#237;culo</text></g><!--link Descansando to EsperandoEnLaParada--><g id="link_Descansando_EsperandoEnLaParada"><path d="M951.31,1133.8983 C956.56,1128.6383 961.21,1122.6283 964.23,1115.9683 C986.27,1067.3983 986.27,1044.5383 964.23,995.9683 C961.21,989.3083 960.7986,987.545 955.5486,982.285 " fill="none" id="Descansando-to-EsperandoEnLaParada" style="stroke:#181818;stroke-width:1.0;"/><polygon fill="#181818" points="951.31,978.0383,954.8368,987.234,954.8422,981.5772,960.499,981.5826,951.31,978.0383" style="stroke:#181818;stroke-width:1.0;"/><text fill="#000000" font-family="sans-serif" font-size="13" lengthAdjust="spacing" textLength="111" x="981.76" y="1061.0366">Volver a la parada</text></g><path d="M885.09,1270.97 L1020.9199,1270.97 A12.5,12.5 0 0 1 1033.4199,1283.47 L1033.4199,1297.4583 L872.59,1297.4583 L872.59,1283.47 A12.5,12.5 0 0 1 885.09,1270.97 " fill="#F1F1F1" style="stroke:#F1F1F1;stroke-width:1.0;"/><rect fill="none" height="257.4883" rx="12.5" ry="12.5" style="stroke:#181818;stroke-width:0.5;" width="160.8299" x="872.59" y="1270.97"/><line style="stroke:#181818;stroke-width:0.5;" x1="872.59" x2="1033.4199" y1="1297.4583" y2="1297.4583"/><text fill="#000000" font-family="sans-serif" font-size="14" lengthAdjust="spacing" textLength="40" x="933.0049" y="1289.5052">Tarifa</text><ellipse cx="941.0699" cy="1318.4583" fill="#222222" rx="10" ry="10" style="stroke:#222222;stroke-width:1.0;"/><g id="Tarifa.Vigente"><rect fill="#F1F1F1" height="50" rx="12.5" ry="12.5" style="stroke:#181818;stroke-width:0.5;" width="72" x="905.0699" y="1365.4583"/><line style="stroke:#181818;stroke-width:0.5;" x1="905.0699" x2="977.0699" y1="1391.9466" y2="1391.9466"/><text fill="#000000" font-family="sans-serif" font-size="14" lengthAdjust="spacing" textLength="52" x="915.0699" y="1383.9934">Vigente</text></g><g id="Tarifa.Expirada"><rect fill="#F1F1F1" height="50" rx="12.5" ry="12.5" style="stroke:#181818;stroke-width:0.5;" width="81" x="900.5699" y="1468.4583"/><line style="stroke:#181818;stroke-width:0.5;" x1="900.5699" x2="981.5699" y1="1494.9466" y2="1494.9466"/><text fill="#000000" font-family="sans-serif" font-size="14" lengthAdjust="spacing" textLength="61" x="910.5699" y="1486.9934">Expirada</text></g><!--link *start*Tarifa to Vigente--><g id="link_*start*Tarifa_Vigente"><path d="M941.0699,1328.8983 C941.0699,1338.1583 941.0699,1346.6483 941.0699,1359.1383 " fill="none" id="*start*Tarifa-to-Vigente" style="stroke:#181818;stroke-width:1.0;"/><polygon fill="#181818" points="941.0699,1365.1383,945.0699,1356.1383,941.0699,1360.1383,937.0699,1356.1383,941.0699,1365.1383" style="stroke:#181818;stroke-width:1.0;"/></g><!--link Vigente to Expirada--><g id="link_Vigente_Expirada"><path d="M905.0499,1414.8383 C899.3799,1420.2283 894.3299,1426.4683 891.0699,1433.4583 C885.1799,1446.1183 887.9448,1454.1223 898.5148,1464.0423 " fill="none" id="Vigente-to-Expirada" style="stroke:#181818;stroke-width:1.0;"/><polygon fill="#181818" points="902.8899,1468.1483,899.0646,1459.0726,899.244,1464.7266,893.59,1464.906,902.8899,1468.1483" style="stroke:#181818;stroke-width:1.0;"/><text fill="#000000" font-family="sans-serif" font-size="13" lengthAdjust="spacing" textLength="78" x="892.0699" y="1447.0266">Vencimiento</text></g><!--link Expirada to Vigente--><g id="link_Expirada_Vigente"><path d="M963.1699,1468.2383 C970.0199,1457.8483 974.8999,1445.3883 971.0699,1433.4583 C969.0999,1427.3183 969.1875,1426.3076 965.5575,1420.8376 " fill="none" id="Expirada-to-Vigente" style="stroke:#181818;stroke-width:1.0;"/><polygon fill="#181818" points="962.2399,1415.8383,963.8835,1425.549,965.0046,1420.0044,970.5492,1421.1255,962.2399,1415.8383" style="stroke:#181818;stroke-width:1.0;"/><text fill="#000000" font-family="sans-serif" font-size="13" lengthAdjust="spacing" textLength="50" x="973.4199" y="1447.0266">Renovar</text></g><!--link *start* to RutaInactiva--><g id="link_*start*_RutaInactiva"><path d="M361,26.49 C361,32.9275 361,42.1263 361,52.4548 C361,57.6191 361,63.0659 361,68.5912 C361,71.3538 361,74.1361 361,76.9125 C361,77.6066 361,78.3004 361,78.9934 C361,79.3399 361,79.6861 361,80.0322 C361,80.2052 361,74.3782 361,74.5511 " fill="none" id="*start*-to-RutaInactiva" style="stroke:#181818;stroke-width:1.0;"/><polygon fill="#181818" points="361,80.5511,365,71.5511,361,75.5511,357,71.5511,361,80.5511" style="stroke:#181818;stroke-width:1.0;"/></g><!--link *start*RutaInactiva to RutaNoDisponible--><g id="link_*start*RutaInactiva_RutaNoDisponible"><path d="M183,144.49 C183,162.34 183,195.43 183,220.96 " fill="none" id="*start*RutaInactiva-to-RutaNoDisponible" style="stroke:#181818;stroke-width:1.0;"/><polygon fill="#181818" points="183,226.96,187,217.96,183,221.96,179,217.96,183,226.96" style="stroke:#181818;stroke-width:1.0;"/></g><!--link RutaNoDisponible to RutaActiva--><g id="link_RutaNoDisponible_RutaActiva"><path d="M183,277.47 C183,296.49 183,318.47 183,347.65 " fill="none" id="RutaNoDisponible-to-RutaActiva" style="stroke:#181818;stroke-width:1.0;"/><polygon fill="#181818" points="183,353.65,187,344.65,183,348.65,179,344.65,183,353.65" style="stroke:#181818;stroke-width:1.0;"/><text fill="#000000" font-family="sans-serif" font-size="13" lengthAdjust="spacing" textLength="44" x="184" y="320.5684">Activar</text></g><!--link *start*Veh?culoDisponible to Veh?culoInactivo--><g id="link_*start*Veh&#237;culoDisponible_Veh&#237;culoInactivo"><path d="M531,262.25 C531,295.18 531,401.4 531,451.38 " fill="none" id="*start*Veh&#237;culoDisponible-to-Veh&#237;culoInactivo" style="stroke:#181818;stroke-width:1.0;"/><polygon fill="#181818" points="531,457.38,535,448.38,531,452.38,527,448.38,531,457.38" style="stroke:#181818;stroke-width:1.0;"/></g><!--link Veh?culoInactivo to Veh?culoEnRuta--><g id="link_Veh&#237;culoInactivo_Veh&#237;culoEnRuta"><path d="M531,507.85 C531,555.02 531,653.03 531,700.28 " fill="none" id="Veh&#237;culoInactivo-to-Veh&#237;culoEnRuta" style="stroke:#181818;stroke-width:1.0;"/><polygon fill="#181818" points="531,706.28,535,697.28,531,701.28,527,697.28,531,706.28" style="stroke:#181818;stroke-width:1.0;"/><text fill="#000000" font-family="sans-serif" font-size="13" lengthAdjust="spacing" textLength="72" x="532" y="673.0484">Iniciar viaje</text></g><!--link Veh?culoEnRuta to Veh?culoEnMantenimiento--><g id="link_Veh&#237;culoEnRuta_Veh&#237;culoEnMantenimiento"><path d="M467.23,740.64 C413.41,748.98 342.39,763.94 325,786.48 C264.43,864.98 395.7006,945.4923 476.1506,985.6123 " fill="none" id="Veh&#237;culoEnRuta-to-Veh&#237;culoEnMantenimiento" style="stroke:#181818;stroke-width:1.0;"/><polygon fill="#181818" points="481.52,988.29,475.2511,980.6939,477.0455,986.0586,471.6808,987.8531,481.52,988.29" style="stroke:#181818;stroke-width:1.0;"/><text fill="#000000" font-family="sans-serif" font-size="13" lengthAdjust="spacing" textLength="153" x="326" y="800.0484">Necesita mantenimiento</text></g><!--link Veh?culoEnRuta to Veh?culoDisponible--><g id="link_Veh&#237;culoEnRuta_Veh&#237;culoDisponible"><path d="M574.17,756.92 C601,774.56 633.6,800.95 651,833.48 C686.44,899.75 673.8967,993.3759 672.0767,1005.5559 " fill="none" id="Veh&#237;culoEnRuta-to-Veh&#237;culoDisponible" style="stroke:#181818;stroke-width:1.0;"/><polygon fill="#181818" points="671.19,1011.49,676.4761,1003.18,671.9289,1006.5449,668.564,1001.9977,671.19,1011.49" style="stroke:#181818;stroke-width:1.0;"/><text fill="#000000" font-family="sans-serif" font-size="13" lengthAdjust="spacing" textLength="104" x="629.8" y="800.0484">Llegar al destino</text></g><!--link RutaActiva to Veh?culoEnRuta--><g id="link_RutaActiva_Veh&#237;culoEnRuta"><path d="M325.6,611.84 C354.22,634.74 384.81,657.36 415,676.48 C432.36,687.48 446.8636,695.0745 465.2736,703.4945 " fill="none" id="RutaActiva-to-Veh&#237;culoEnRuta" style="stroke:#181818;stroke-width:1.0;"/><polygon fill="#181818" points="470.73,705.99,464.2091,698.6091,466.183,703.9104,460.8817,705.8843,470.73,705.99" style="stroke:#181818;stroke-width:1.0;"/><text fill="#000000" font-family="sans-serif" font-size="13" lengthAdjust="spacing" textLength="106" x="416" y="673.0484">Asignar Veh&#237;culo</text></g><!--link Veh?culoEnRuta to Persona--><g id="link_Veh&#237;culoEnRuta_Persona"><path d="M594.97,733.47 C649.87,737.08 729.07,749.12 787,786.48 C806.86,799.29 821.0394,810.9893 837.6394,828.6393 " fill="none" id="Veh&#237;culoEnRuta-to-Persona" style="stroke:#181818;stroke-width:1.0;"/><polygon fill="#181818" points="841.75,833.01,838.4978,823.7136,838.3245,829.3678,832.6703,829.1944,841.75,833.01" style="stroke:#181818;stroke-width:1.0;"/><text fill="#000000" font-family="sans-serif" font-size="13" lengthAdjust="spacing" textLength="73" x="806.39" y="800.0484">Transportar</text></g><!--link Persona to Tarifa--><g id="link_Persona_Tarifa"><path d="M953,1194.35 C953,1220.12 953,1240.18 953,1264.68 " fill="none" id="Persona-to-Tarifa" style="stroke:#181818;stroke-width:1.0;"/><polygon fill="#181818" points="953,1270.68,957,1261.68,953,1265.68,949,1261.68,953,1270.68" style="stroke:#181818;stroke-width:1.0;"/><text fill="#000000" font-family="sans-serif" font-size="13" lengthAdjust="spacing" textLength="34" x="954" y="1237.5384">Pagar</text></g><!--SRC=[XLB1QiCm3BtdAtmUz0To69IsWq9NIbTwAJkeYTPfk7AmdJ0szadxYltOb3Z9dAobFjdIqzFJamztpseokLVRqiEI8VDKGP8u3nu7CVMPA3c72BusStA5OJfgR9BZO8-S1efKXOjDlk8MqsiD5ZmhhJCzT_lkypDpBZHwo6lg1sBGz27ar-1FfIkGSshWxGCZBNjy_VdEIXrFC1JL8rfNWhH_qI5smNLpQRbaoWYigWZUS5ZPOaPrZy0UcSw4x8qGh353Hu8xnudRJD4ygLffF8a8q2f7vudDdm4R5Bjul8c566M1Sw5UmGQisDtaByH3Mncl3ZSc7wbfLNLIWjWEKSFdw39WrrN83gqe6vV4g2kYf7flT8NIK6bGHL3Q3xS3Io_ZsVPq4WlRPOHxe7ylgED4pcAd-rHKBx0jicb_TlIdBt-4gQCJomxwJ79fVTqsKhMJIMM3rWj_5wqHxKYfse2iDFa5]--></g></svg>