<?xml version="1.0" encoding="us-ascii" standalone="no"?><svg xmlns="http://www.w3.org/2000/svg" xmlns:xlink="http://www.w3.org/1999/xlink" contentStyleType="text/css" height="453px" preserveAspectRatio="none" style="width:890px;height:453px;background:#FFFFFF;" version="1.1" viewBox="0 0 890 453" width="890px" zoomAndPan="magnify"><defs/><g><!--class Ayuntamiento--><g id="elem_Ayuntamiento"><rect codeLine="4" fill="#F1F1F1" height="26.4883" id="Ayuntamiento" rx="2.5" ry="2.5" style="stroke:#181818;stroke-width:0.5;" width="102" x="217" y="7"/><text fill="#000000" font-family="sans-serif" font-size="14" lengthAdjust="spacing" textLength="96" x="220" y="25.5352">Ayuntamiento</text></g><!--class Incidencias--><g id="elem_Incidencias"><rect codeLine="6" fill="#F1F1F1" height="26.4883" id="Incidencias" rx="2.5" ry="2.5" style="stroke:#181818;stroke-width:0.5;" width="82" x="219" y="110.49"/><text fill="#000000" font-family="sans-serif" font-size="14" lengthAdjust="spacing" textLength="76" x="222" y="129.0252">Incidencias</text></g><!--class Abono--><g id="elem_Abono"><rect codeLine="8" fill="#F1F1F1" height="26.4883" id="Abono" rx="2.5" ry="2.5" style="stroke:#181818;stroke-width:0.5;" width="52" x="746" y="213.98"/><text fill="#000000" font-family="sans-serif" font-size="14" lengthAdjust="spacing" textLength="46" x="749" y="232.5152">Abono</text></g><!--class Horario--><g id="elem_Horario"><rect codeLine="10" fill="#F1F1F1" height="26.4883" id="Horario" rx="2.5" ry="2.5" style="stroke:#181818;stroke-width:0.5;" width="58" x="7" y="420.95"/><text fill="#000000" font-family="sans-serif" font-size="14" lengthAdjust="spacing" textLength="52" x="10" y="439.4852">Horario</text></g><!--class Ruta--><g id="elem_Ruta"><rect codeLine="12" fill="#F1F1F1" height="26.4883" id="Ruta" rx="2.5" ry="2.5" style="stroke:#181818;stroke-width:0.5;" width="37" x="138.5" y="110.49"/><text fill="#000000" font-family="sans-serif" font-size="14" lengthAdjust="spacing" textLength="31" x="141.5" y="129.0252">Ruta</text></g><!--class Veh?culo--><g id="elem_Veh&#237;culo"><rect codeLine="14" fill="#F1F1F1" height="26.4883" id="Veh&#237;culo" rx="2.5" ry="2.5" style="stroke:#181818;stroke-width:0.5;" width="65" x="405.5" y="213.98"/><text fill="#000000" font-family="sans-serif" font-size="14" lengthAdjust="spacing" textLength="59" x="408.5" y="232.5152">Veh&#237;culo</text></g><!--class Tarifa--><g id="elem_Tarifa"><rect codeLine="16" fill="#F1F1F1" height="26.4883" id="Tarifa" rx="2.5" ry="2.5" style="stroke:#181818;stroke-width:0.5;" width="46" x="657" y="317.46"/><text fill="#000000" font-family="sans-serif" font-size="14" lengthAdjust="spacing" textLength="40" x="660" y="335.9952">Tarifa</text></g><!--class Parada--><g id="elem_Parada"><rect codeLine="18" fill="#F1F1F1" height="26.4883" id="Parada" rx="2.5" ry="2.5" style="stroke:#181818;stroke-width:0.5;" width="53" x="241.5" y="317.46"/><text fill="#000000" font-family="sans-serif" font-size="14" lengthAdjust="spacing" textLength="47" x="244.5" y="335.9952">Parada</text></g><!--class Persona--><g id="elem_Persona"><rect codeLine="20" fill="#F1F1F1" height="26.4883" id="Persona" rx="2.5" ry="2.5" style="stroke:#181818;stroke-width:0.5;" width="61" x="556.5" y="110.49"/><text fill="#000000" font-family="sans-serif" font-size="14" lengthAdjust="spacing" textLength="55" x="559.5" y="129.0252">Persona</text></g><!--class Pasajeros--><g id="elem_Pasajeros"><rect fill="#F1F1F1" height="26.4883" id="Pasajeros" rx="2.5" ry="2.5" style="stroke:#181818;stroke-width:0.5;" width="71" x="336.5" y="110.49"/><text fill="#000000" font-family="sans-serif" font-size="14" lengthAdjust="spacing" textLength="65" x="339.5" y="129.0252">Pasajeros</text></g><!--class Conductor--><g id="elem_Conductor"><rect fill="#F1F1F1" height="26.4883" id="Conductor" rx="2.5" ry="2.5" style="stroke:#181818;stroke-width:0.5;" width="79" x="442.5" y="110.49"/><text fill="#000000" font-family="sans-serif" font-size="14" lengthAdjust="spacing" textLength="73" x="445.5" y="129.0252">Conductor</text></g><!--link Ayuntamiento to Incidencias--><g id="link_Ayuntamiento_Incidencias"><path codeLine="23" d="M267.02,33.69 C265.48,53.17 263.0014,84.6585 261.4614,104.1985 " fill="none" id="Ayuntamiento-to-Incidencias" style="stroke:#181818;stroke-width:1.0;"/><polygon fill="#181818" points="260.99,110.18,265.6848,101.5221,261.3828,105.1955,257.7095,100.8935,260.99,110.18" style="stroke:#181818;stroke-width:1.0;"/><text fill="#000000" font-family="sans-serif" font-size="13" lengthAdjust="spacing" textLength="69" x="265.48" y="77.0584">Administra</text></g><!--link Ayuntamiento to Tarifa--><g id="link_Ayuntamiento_Tarifa"><path codeLine="24" d="M319.25,22.06 C440.7,25.14 740.78,39.9 806,110.49 C859.65,168.56 847.9,235.86 788,287.46 C763.44,308.62 732.9071,318.5239 709.2771,323.9639 " fill="none" id="Ayuntamiento-to-Tarifa" style="stroke:#181818;stroke-width:1.0;"/><polygon fill="#181818" points="703.43,325.31,713.098,327.1889,708.3025,324.1883,711.3032,319.3928,703.43,325.31" style="stroke:#181818;stroke-width:1.0;"/><text fill="#000000" font-family="sans-serif" font-size="13" lengthAdjust="spacing" textLength="41" x="841.09" y="180.5484">Define</text></g><!--link Ayuntamiento to Ruta--><g id="link_Ayuntamiento_Ruta"><path codeLine="25" d="M230.73,33.97 C215.08,40.79 197.62,50.5 185,63.49 C172,76.87 165.9135,91.6789 161.9535,104.7189 " fill="none" id="Ayuntamiento-to-Ruta" style="stroke:#181818;stroke-width:1.0;"/><polygon fill="#181818" points="160.21,110.46,166.6526,103.0106,161.6629,105.6757,158.9978,100.686,160.21,110.46" style="stroke:#181818;stroke-width:1.0;"/><text fill="#000000" font-family="sans-serif" font-size="13" lengthAdjust="spacing" textLength="69" x="186" y="77.0584">Administra</text></g><!--link Ayuntamiento to Abono--><g id="link_Ayuntamiento_Abono"><path codeLine="26" d="M319.41,31.28 C390.99,45.82 524.35,74.92 635,110.49 C698.88,131.02 737.47,111.36 775,166.98 C784.33,180.8 782.4158,195.1257 778.4558,207.9857 " fill="none" id="Ayuntamiento-to-Abono" style="stroke:#181818;stroke-width:1.0;"/><polygon fill="#181818" points="776.69,213.72,783.1615,206.2957,778.1615,208.9414,775.5158,203.9414,776.69,213.72" style="stroke:#181818;stroke-width:1.0;"/><text fill="#000000" font-family="sans-serif" font-size="13" lengthAdjust="spacing" textLength="52" x="745.29" y="128.7984">Dispone</text></g><!--link Ayuntamiento to Horario--><g id="link_Ayuntamiento_Horario"><path codeLine="27" d="M216.75,30.38 C140.74,45.41 7,78.19 7,122.73 C7,122.73 7,122.73 7,331.71 C7,364.88 19.0338,396.4103 27.5238,415.2403 " fill="none" id="Ayuntamiento-to-Horario" style="stroke:#181818;stroke-width:1.0;"/><polygon fill="#181818" points="29.99,420.71,29.9372,410.8613,27.9349,416.1519,22.6443,414.1495,29.99,420.71" style="stroke:#181818;stroke-width:1.0;"/><text fill="#000000" font-family="sans-serif" font-size="13" lengthAdjust="spacing" textLength="41" x="8" y="232.2884">Define</text></g><!--link Incidencias to Veh?culo--><g id="link_Incidencias_Veh&#237;culo"><path codeLine="28" d="M271.08,137.1 C283.4,150.24 304.42,170.86 326,183.98 C350.86,199.09 376.2919,208.5468 399.4319,215.6168 " fill="none" id="Incidencias-to-Veh&#237;culo" style="stroke:#181818;stroke-width:1.0;"/><polygon fill="#181818" points="405.17,217.37,397.7316,210.9148,400.3882,215.909,395.394,218.5657,405.17,217.37" style="stroke:#181818;stroke-width:1.0;"/><text fill="#000000" font-family="sans-serif" font-size="13" lengthAdjust="spacing" textLength="50" x="327" y="180.5484">Ocurren</text></g><!--link Abono to Tarifa--><g id="link_Abono_Tarifa"><path codeLine="29" d="M760.72,240.66 C743.06,260.14 709.09,297.62 691.37,317.16 " fill="none" id="Abono-Tarifa" style="stroke:#181818;stroke-width:1.0;stroke-dasharray:7.0,7.0;"/><text fill="#000000" font-family="sans-serif" font-size="13" lengthAdjust="spacing" textLength="46" x="732.51" y="284.0284">Liquida</text></g><!--link Parada to Horario--><g id="link_Parada_Horario"><path codeLine="30" d="M241.39,343.35 C197.47,362.56 115.667,398.3453 70.337,418.1753 " fill="none" id="Parada-to-Horario" style="stroke:#181818;stroke-width:1.0;"/><polygon fill="#181818" points="64.84,420.58,74.6887,420.6376,69.4209,418.5761,71.4824,413.3082,64.84,420.58" style="stroke:#181818;stroke-width:1.0;"/><text fill="#000000" font-family="sans-serif" font-size="13" lengthAdjust="spacing" textLength="34" x="166.89" y="387.5184">Tiene</text></g><!--link Ruta to Veh?culo--><g id="link_Ruta_Veh&#237;culo"><path codeLine="31" d="M173.97,137.45 C192.65,150.88 224.03,171.76 254,183.98 C267.89,189.63 350.0717,207.5396 399.1617,217.9996 " fill="none" id="Ruta-to-Veh&#237;culo" style="stroke:#181818;stroke-width:1.0;"/><polygon fill="#181818" points="405.03,219.25,397.0612,213.4622,400.1398,218.208,395.394,221.2866,405.03,219.25" style="stroke:#181818;stroke-width:1.0;"/><text fill="#000000" font-family="sans-serif" font-size="13" lengthAdjust="spacing" textLength="40" x="255" y="180.5484">Ocupa</text></g><!--link Ruta to Parada--><g id="link_Ruta_Parada"><path codeLine="32" d="M162.81,137.41 C172.74,158.91 193.89,203.73 214,240.46 C229.31,268.42 245.8686,295.0582 256.7386,312.1382 " fill="none" id="Ruta-to-Parada" style="stroke:#181818;stroke-width:1.0;"/><polygon fill="#181818" points="259.96,317.2,258.5024,307.4596,257.2755,312.9818,251.7533,311.7549,259.96,317.2" style="stroke:#181818;stroke-width:1.0;"/><text fill="#000000" font-family="sans-serif" font-size="13" lengthAdjust="spacing" textLength="76" x="215" y="232.2884">Se compone</text></g><!--link Veh?culo to Parada--><g id="link_Veh&#237;culo_Parada"><path codeLine="33" d="M423.68,240.86 C408.73,253.65 384.28,273.48 361,287.46 C339.72,300.25 319.4589,309.432 300.4289,317.162 " fill="none" id="Veh&#237;culo-to-Parada" style="stroke:#181818;stroke-width:1.0;stroke-dasharray:7.0,7.0;"/><polygon fill="#181818" points="294.87,319.42,304.7137,319.7389,299.5024,317.5383,301.703,312.327,294.87,319.42" style="stroke:#181818;stroke-width:1.0;"/><text fill="#000000" font-family="sans-serif" font-size="13" lengthAdjust="spacing" textLength="33" x="386.4" y="284.0284">Llega</text></g><!--link Veh?culo to Persona--><g id="link_Veh&#237;culo_Persona"><path codeLine="34" d="M469.9,213.58 C486.96,206.14 507.9,195.86 525,183.98 C544.81,170.21 560.3357,154.5812 572.0357,141.7012 " fill="none" id="Veh&#237;culo-to-Persona" style="stroke:#181818;stroke-width:1.0;"/><polygon fill="#181818" points="576.07,137.26,567.0577,141.2323,572.7081,140.961,572.9793,146.6113,576.07,137.26" style="stroke:#181818;stroke-width:1.0;"/><text fill="#000000" font-family="sans-serif" font-size="13" lengthAdjust="spacing" textLength="32" x="546.25" y="180.5484">Lleva</text></g><!--link Veh?culo to Persona--><g id="link_Veh&#237;culo_Persona"><path codeLine="35" d="M415.76,213.48 C397.6,201.46 376.92,182.95 390,166.98 C432.79,114.71 473.14,152 539,136.98 C544.53,135.71 544.5904,135.7501 550.2504,134.3301 " fill="none" id="Veh&#237;culo-to-Persona-1" style="stroke:#181818;stroke-width:1.0;"/><polygon fill="#181818" points="556.07,132.87,546.3672,131.1803,551.2203,134.0867,548.3139,138.9398,556.07,132.87" style="stroke:#181818;stroke-width:1.0;"/><text fill="#000000" font-family="sans-serif" font-size="13" lengthAdjust="spacing" textLength="32" x="391" y="180.5484">Lleva</text></g><!--link Persona to Veh?culo--><g id="link_Persona_Veh&#237;culo"><path codeLine="38" d="M556.04,133.51 C520.78,143.74 467.1,160.11 460,166.98 C447.06,179.48 442.647,194.3601 440.447,207.6901 " fill="none" id="Persona-to-Veh&#237;culo" style="stroke:#181818;stroke-width:1.0;"/><polygon fill="#181818" points="439.47,213.61,444.8822,205.3815,440.2842,208.6767,436.9889,204.0788,439.47,213.61" style="stroke:#181818;stroke-width:1.0;"/><text fill="#000000" font-family="sans-serif" font-size="13" lengthAdjust="spacing" textLength="55" x="461" y="180.5484">Conduce</text></g><!--link Veh?culo to Tarifa--><g id="link_Veh&#237;culo_Tarifa"><path codeLine="36" d="M451.46,240.95 C466.37,254.39 491.67,275.27 517,287.46 C563.76,309.96 618.1095,320.6596 650.6795,325.6596 " fill="none" id="Veh&#237;culo-to-Tarifa" style="stroke:#181818;stroke-width:1.0;"/><polygon fill="#181818" points="656.61,326.57,648.3212,321.2507,651.6679,325.8113,647.1073,329.158,656.61,326.57" style="stroke:#181818;stroke-width:1.0;"/><text fill="#000000" font-family="sans-serif" font-size="13" lengthAdjust="spacing" textLength="34" x="518" y="284.0284">Tiene</text></g><!--link Persona to Tarifa--><g id="link_Persona_Tarifa"><path codeLine="37" d="M586.94,137.17 C587.29,159.05 590.04,205.44 606,240.46 C620.27,271.78 644.1004,296.9896 661.2704,312.9896 " fill="none" id="Persona-to-Tarifa" style="stroke:#181818;stroke-width:1.0;"/><polygon fill="#181818" points="665.66,317.08,661.8026,308.018,662.002,313.6713,656.3487,313.8707,665.66,317.08" style="stroke:#181818;stroke-width:1.0;"/><text fill="#000000" font-family="sans-serif" font-size="13" lengthAdjust="spacing" textLength="29" x="607" y="232.2884">Paga</text></g><!--link Persona to Tarifa--><g id="link_Persona_Tarifa"><path codeLine="41" d="M596.27,137.42 C602.16,145.69 609.82,156.78 616,166.98 C628.27,187.2 631.64,192.25 641,213.98 C656.78,250.58 668.7595,290.0715 674.8995,311.5315 " fill="none" id="Persona-to-Tarifa-1" style="stroke:#181818;stroke-width:1.0;"/><polygon fill="#181818" points="676.55,317.3,677.92,307.5469,675.1746,312.4929,670.2286,309.7475,676.55,317.3" style="stroke:#181818;stroke-width:1.0;"/><text fill="#000000" font-family="sans-serif" font-size="13" lengthAdjust="spacing" textLength="29" x="652.35" y="232.2884">Paga</text></g><!--link Persona to Abono--><g id="link_Persona_Abono"><path codeLine="39" d="M617.63,137.08 C636.3,144.95 660.43,155.74 681,166.98 C707.47,181.43 731.4877,197.5148 749.4677,210.1248 " fill="none" id="Persona-to-Abono" style="stroke:#181818;stroke-width:1.0;"/><polygon fill="#181818" points="754.38,213.57,749.3083,205.1274,750.2864,210.699,744.7148,211.6771,754.38,213.57" style="stroke:#181818;stroke-width:1.0;"/><text fill="#000000" font-family="sans-serif" font-size="13" lengthAdjust="spacing" textLength="56" x="710.28" y="180.5484">Adquiere</text></g><!--link Persona to Parada--><g id="link_Persona_Parada"><path codeLine="40" d="M556.09,132.93 C550.42,134.35 544.54,135.75 539,136.98 C467.92,152.65 438.87,127.07 378,166.98 C319.82,205.12 286.6545,280.2063 274.7145,311.4063 " fill="none" id="Persona-to-Parada" style="stroke:#181818;stroke-width:1.0;stroke-dasharray:7.0,7.0;"/><polygon fill="#181818" points="272.57,317.01,279.5225,310.0341,274.3571,312.3403,272.0509,307.1748,272.57,317.01" style="stroke:#181818;stroke-width:1.0;"/><text fill="#000000" font-family="sans-serif" font-size="13" lengthAdjust="spacing" textLength="33" x="328.3" y="232.2884">Llega</text></g><!--link Pasajeros to Persona--><g id="link_Pasajeros_Persona"><path codeLine="42" d="M385.06,110.07 C398.19,97.41 419.7,79.45 442.5,71.99 C475.87,61.06 488.33,60.47 521.5,71.99 C543.13,79.5 554.7298,88.7644 566.7798,101.4044 " fill="none" id="Pasajeros-to-Persona" style="stroke:#181818;stroke-width:1.0;"/><polygon fill="#181818" points="575.06,110.09,573.8151,102.9872,566.7798,101.4044,568.0247,108.5073,575.06,110.09" style="stroke:#181818;stroke-width:1.0;"/></g><!--link Conductor to Persona--><g id="link_Conductor_Persona"><path codeLine="43" d="M521.79,123.73 C533.25,123.73 532.71,123.73 544.18,123.73 " fill="none" id="Conductor-to-Persona" style="stroke:#181818;stroke-width:1.0;"/><polygon fill="#181818" points="556.18,123.73,550.18,119.73,544.18,123.73,550.18,127.73,556.18,123.73" style="stroke:#181818;stroke-width:1.0;"/></g><!--SRC=[bLBBJiCm4BpxAtn6QZwW1wG83Y1LeYeLzwsz9KQn7Vn0waVn5VmOcxYnNHg1k4Jspkpip3gTaiXH3-74DUe3Ei-wiIIK4pqo9dhmdhUdQ09eXIROkVPe117f0pxJ3jPa_C4wS2fVTp70V7x1xkjJn3w3Us8UCxm51xBSo9CrT6Mr2xvQtTOM-9gtKYkZV71mpKm3Y7IFHsNmcZ3Q-qDZIZTAA3_O9OrpuZAbzZSIScwYF8de71gML9kcMDoezwWeVrh33-KzZKCskLrG7A10v_OrVwRNj7goNEXDKp4sFRv21KxjQUq9_VWVcgCajpFv0je2ZQoHEigTDJAAoyvv_QsazQ0hu4AKNoQ2XpTqbXxa9lzQQLomhYv-0m00]--></g></svg>