<?xml version="1.0" encoding="us-ascii" standalone="no"?><svg xmlns="http://www.w3.org/2000/svg" xmlns:xlink="http://www.w3.org/1999/xlink" contentStyleType="text/css" height="597px" preserveAspectRatio="none" style="width:725px;height:597px;background:#FFFFFF;" version="1.1" viewBox="0 0 725 597" width="725px" zoomAndPan="magnify"><defs/><g><!--class Ruta13: Ruta--><g id="elem_Ruta13: Ruta"><rect codeLine="4" fill="#F1F1F1" height="83.9531" id="Ruta13: Ruta" rx="2.5" ry="2.5" style="stroke:#181818;stroke-width:0.5;" width="163" x="7" y="7"/><text fill="#000000" font-family="sans-serif" font-size="14" lengthAdjust="spacing" textLength="88" x="44.5" y="25.5352">Ruta13: Ruta</text><line style="stroke:#181818;stroke-width:0.5;" x1="8" x2="169" y1="33.4883" y2="33.4883"/><text fill="#000000" font-family="sans-serif" font-size="14" lengthAdjust="spacing" textLength="93" x="13" y="51.0234">Estado: activa</text><text fill="#000000" font-family="sans-serif" font-size="14" lengthAdjust="spacing" textLength="151" x="13" y="67.5117">Puntualidad: Atrasada</text><text fill="#000000" font-family="sans-serif" font-size="14" lengthAdjust="spacing" textLength="92" x="13" y="84">Destino: Lluja</text></g><!--class Veh?culo1: Veh?culo--><g id="elem_Veh&#237;culo1: Veh&#237;culo"><rect codeLine="10" fill="#F1F1F1" height="100.4414" id="Veh&#237;culo1: Veh&#237;culo" rx="2.5" ry="2.5" style="stroke:#181818;stroke-width:0.5;" width="141" x="311" y="167.95"/><text fill="#000000" font-family="sans-serif" font-size="14" lengthAdjust="spacing" textLength="135" x="314" y="186.4852">Veh&#237;culo1: Veh&#237;culo</text><line style="stroke:#181818;stroke-width:0.5;" x1="312" x2="451" y1="194.4383" y2="194.4383"/><text fill="#000000" font-family="sans-serif" font-size="14" lengthAdjust="spacing" textLength="107" x="317" y="211.9734">Capacidad: 100</text><text fill="#000000" font-family="sans-serif" font-size="14" lengthAdjust="spacing" textLength="107" x="317" y="228.4617">Modelo: XM100</text><text fill="#000000" font-family="sans-serif" font-size="14" lengthAdjust="spacing" textLength="85" x="317" y="244.95">Asientos: 50</text><text fill="#000000" font-family="sans-serif" font-size="14" lengthAdjust="spacing" textLength="63" x="317" y="261.4383">Tipo: Bus</text></g><!--class Tarifa1: Tarifa--><g id="elem_Tarifa1: Tarifa"><rect codeLine="17" fill="#F1F1F1" height="67.4648" id="Tarifa1: Tarifa" rx="2.5" ry="2.5" style="stroke:#181818;stroke-width:0.5;" width="115" x="495" y="514.59"/><text fill="#000000" font-family="sans-serif" font-size="14" lengthAdjust="spacing" textLength="97" x="504" y="533.1252">Tarifa1: Tarifa</text><line style="stroke:#181818;stroke-width:0.5;" x1="496" x2="609" y1="541.0783" y2="541.0783"/><text fill="#000000" font-family="sans-serif" font-size="14" lengthAdjust="spacing" textLength="79" x="501" y="558.6134">Costo: 1.30</text><text fill="#000000" font-family="sans-serif" font-size="14" lengthAdjust="spacing" textLength="103" x="501" y="575.1017">TipoTarifa: Bus</text></g><!--class Parada1: Parada--><g id="elem_Parada1: Parada"><rect codeLine="22" fill="#F1F1F1" height="83.9531" id="Parada1: Parada" rx="2.5" ry="2.5" style="stroke:#181818;stroke-width:0.5;" width="169" x="76" y="506.35"/><text fill="#000000" font-family="sans-serif" font-size="14" lengthAdjust="spacing" textLength="111" x="105" y="524.8852">Parada1: Parada</text><line style="stroke:#181818;stroke-width:0.5;" x1="77" x2="244" y1="532.8383" y2="532.8383"/><text fill="#000000" font-family="sans-serif" font-size="14" lengthAdjust="spacing" textLength="154" x="82" y="550.3734">Nombre: Manuel Llano</text><text fill="#000000" font-family="sans-serif" font-size="14" lengthAdjust="spacing" textLength="81" x="82" y="566.8617">N&#250;mero: 13</text><text fill="#000000" font-family="sans-serif" font-size="14" lengthAdjust="spacing" textLength="157" x="82" y="583.35">Corresponencia: Ruta1</text></g><!--class Persona1: Persona--><g id="elem_Persona1: Persona"><rect codeLine="28" fill="#F1F1F1" height="83.9531" id="Persona1: Persona" rx="2.5" ry="2.5" style="stroke:#181818;stroke-width:0.5;" width="188" x="230.5" y="345.39"/><text fill="#000000" font-family="sans-serif" font-size="14" lengthAdjust="spacing" textLength="127" x="261" y="363.9252">Persona1: Persona</text><line style="stroke:#181818;stroke-width:0.5;" x1="231.5" x2="417.5" y1="371.8783" y2="371.8783"/><text fill="#000000" font-family="sans-serif" font-size="14" lengthAdjust="spacing" textLength="175" x="236.5" y="389.4134">Nombre: Santiago G&#243;mez</text><text fill="#000000" font-family="sans-serif" font-size="14" lengthAdjust="spacing" textLength="121" x="236.5" y="405.9017">Permiso: Pasajero</text><text fill="#000000" font-family="sans-serif" font-size="14" lengthAdjust="spacing" textLength="176" x="236.5" y="422.39">Abono: Tarjeta Trimestral</text></g><!--class Persona2: Persona--><g id="elem_Persona2: Persona"><rect codeLine="34" fill="#F1F1F1" height="83.9531" id="Persona2: Persona" rx="2.5" ry="2.5" style="stroke:#181818;stroke-width:0.5;" width="198" x="453.5" y="345.39"/><text fill="#000000" font-family="sans-serif" font-size="14" lengthAdjust="spacing" textLength="127" x="489" y="363.9252">Persona2: Persona</text><line style="stroke:#181818;stroke-width:0.5;" x1="454.5" x2="650.5" y1="371.8783" y2="371.8783"/><text fill="#000000" font-family="sans-serif" font-size="14" lengthAdjust="spacing" textLength="130" x="459.5" y="389.4134">Nombre: Juan Toca</text><text fill="#000000" font-family="sans-serif" font-size="14" lengthAdjust="spacing" textLength="136" x="459.5" y="405.9017">Permiso: Conductor</text><text fill="#000000" font-family="sans-serif" font-size="14" lengthAdjust="spacing" textLength="186" x="459.5" y="422.39">Abono: Especial Conductor</text></g><!--link Ruta13: Ruta to Veh?culo1: Veh?culo--><g id="link_Ruta13: Ruta_Veh&#237;culo1: Veh&#237;culo"><path codeLine="40" d="M160.93,91.31 C206.6,117.37 260.0886,147.8966 305.4486,173.7766 " fill="none" id="Ruta13: Ruta-to-Veh&#237;culo1: Veh&#237;culo" style="stroke:#181818;stroke-width:1.0;"/><polygon fill="#181818" points="310.66,176.75,304.8251,168.8157,306.3171,174.2722,300.8606,175.7642,310.66,176.75" style="stroke:#181818;stroke-width:1.0;"/><text fill="#000000" font-family="sans-serif" font-size="13" lengthAdjust="spacing" textLength="40" x="236" y="134.5184">Ocupa</text></g><!--link Ruta13: Ruta to Parada1: Parada--><g id="link_Ruta13: Ruta_Parada1: Parada"><path codeLine="41" d="M92.08,91.45 C96.79,143.76 105.72,236.43 116.5,315.39 C126.31,387.26 129.04,405.27 143.5,476.35 C145.47,486.03 146.4368,490.5616 148.7468,500.3116 " fill="none" id="Ruta13: Ruta-to-Parada1: Parada" style="stroke:#181818;stroke-width:1.0;"/><polygon fill="#181818" points="150.13,506.15,151.9474,496.4703,148.9773,501.2847,144.1629,498.3146,150.13,506.15" style="stroke:#181818;stroke-width:1.0;"/><text fill="#000000" font-family="sans-serif" font-size="13" lengthAdjust="spacing" textLength="76" x="117.5" y="311.9584">Se compone</text></g><!--link Veh?culo1: Veh?culo to Parada1: Parada--><g id="link_Veh&#237;culo1: Veh&#237;culo_Parada1: Parada"><path codeLine="42" d="M310.5,244.03 C264.75,263.99 208.41,296.8 178.5,345.39 C148.43,394.25 148.7096,456.7943 153.3596,500.1143 " fill="none" id="Veh&#237;culo1: Veh&#237;culo-to-Parada1: Parada" style="stroke:#181818;stroke-width:1.0;stroke-dasharray:7.0,7.0;"/><polygon fill="#181818" points="154,506.08,157.0166,496.7045,153.4664,501.1086,149.0623,497.5583,154,506.08" style="stroke:#181818;stroke-width:1.0;"/><text fill="#000000" font-family="sans-serif" font-size="13" lengthAdjust="spacing" textLength="33" x="179.5" y="392.4384">Llega</text></g><!--link Persona1: Persona to Parada1: Parada--><g id="link_Persona1: Persona_Parada1: Parada"><path codeLine="43" d="M281.84,429.72 C257.64,453.17 231.748,478.2637 207.538,501.7337 " fill="none" id="Persona1: Persona-to-Parada1: Parada" style="stroke:#181818;stroke-width:1.0;stroke-dasharray:7.0,7.0;"/><polygon fill="#181818" points="203.23,505.91,212.4761,502.5175,206.82,502.4298,206.9078,496.7736,203.23,505.91" style="stroke:#181818;stroke-width:1.0;"/><text fill="#000000" font-family="sans-serif" font-size="13" lengthAdjust="spacing" textLength="33" x="248.42" y="472.9184">Llega</text></g><!--link Persona1: Persona to Tarifa1: Tarifa--><g id="link_Persona1: Persona_Tarifa1: Tarifa"><path codeLine="44" d="M383.81,429.72 C421.55,456.03 464.8382,486.2083 500.0482,510.7583 " fill="none" id="Persona1: Persona-to-Tarifa1: Tarifa" style="stroke:#181818;stroke-width:1.0;"/><polygon fill="#181818" points="504.97,514.19,499.8751,505.7613,500.8685,511.3303,495.2996,512.3237,504.97,514.19" style="stroke:#181818;stroke-width:1.0;"/><text fill="#000000" font-family="sans-serif" font-size="13" lengthAdjust="spacing" textLength="29" x="446.34" y="472.9184">Paga</text></g><!--link Persona2: Persona to Tarifa1: Tarifa--><g id="link_Persona2: Persona_Tarifa1: Tarifa"><path codeLine="45" d="M552.5,429.72 C552.5,456.03 552.5,483.64 552.5,508.19 " fill="none" id="Persona2: Persona-to-Tarifa1: Tarifa" style="stroke:#181818;stroke-width:1.0;"/><polygon fill="#181818" points="552.5,514.19,556.5,505.19,552.5,509.19,548.5,505.19,552.5,514.19" style="stroke:#181818;stroke-width:1.0;"/><text fill="#000000" font-family="sans-serif" font-size="13" lengthAdjust="spacing" textLength="29" x="553.5" y="472.9184">Paga</text></g><!--link Veh?culo1: Veh?culo to Persona1: Persona--><g id="link_Veh&#237;culo1: Veh&#237;culo_Persona1: Persona"><path codeLine="46" d="M353.95,268.55 C349.3,278.24 344.89,288.48 341.5,298.39 C336.42,313.26 333.7447,324.1817 331.1047,339.1117 " fill="none" id="Veh&#237;culo1: Veh&#237;culo-to-Persona1: Persona" style="stroke:#181818;stroke-width:1.0;"/><polygon fill="#181818" points="330.06,345.02,335.566,336.854,330.9306,340.0964,327.6882,335.461,330.06,345.02" style="stroke:#181818;stroke-width:1.0;"/><text fill="#000000" font-family="sans-serif" font-size="13" lengthAdjust="spacing" textLength="32" x="342.5" y="311.9584">Lleva</text></g><!--link Veh?culo1: Veh?culo to Persona2: Persona--><g id="link_Veh&#237;culo1: Veh&#237;culo_Persona2: Persona"><path codeLine="47" d="M402.91,268.46 C411.48,284.63 422.45,301.9 435.5,315.39 C446.07,326.33 453.6796,332.8841 466.6296,341.5841 " fill="none" id="Veh&#237;culo1: Veh&#237;culo-to-Persona2: Persona" style="stroke:#181818;stroke-width:1.0;"/><polygon fill="#181818" points="471.61,344.93,466.37,336.5908,467.4596,342.1417,461.9087,343.2314,471.61,344.93" style="stroke:#181818;stroke-width:1.0;"/><text fill="#000000" font-family="sans-serif" font-size="13" lengthAdjust="spacing" textLength="32" x="436.5" y="311.9584">Lleva</text></g><!--link Persona2: Persona to Veh?culo1: Veh?culo--><g id="link_Persona2: Persona_Veh&#237;culo1: Veh&#237;culo"><path codeLine="49" d="M517.37,345.07 C504.04,329.99 488.46,313.04 473.5,298.39 C463.41,288.51 456.8067,282.341 445.9067,272.761 " fill="none" id="Persona2: Persona-to-Veh&#237;culo1: Veh&#237;culo" style="stroke:#181818;stroke-width:1.0;"/><polygon fill="#181818" points="441.4,268.8,445.5195,277.7459,445.1556,272.1008,450.8008,271.737,441.4,268.8" style="stroke:#181818;stroke-width:1.0;"/><text fill="#000000" font-family="sans-serif" font-size="13" lengthAdjust="spacing" textLength="55" x="490.37" y="311.9584">Conduce</text></g><!--link Veh?culo1: Veh?culo to Tarifa1: Tarifa--><g id="link_Veh&#237;culo1: Veh&#237;culo_Tarifa1: Tarifa"><path codeLine="48" d="M452.47,228.26 C521.16,241.25 621.71,272.28 669.5,345.39 C689.91,376.63 683.71,394.84 669.5,429.35 C655.39,463.62 630.6159,489.4254 604.8059,510.4054 " fill="none" id="Veh&#237;culo1: Veh&#237;culo-to-Tarifa1: Tarifa" style="stroke:#181818;stroke-width:1.0;"/><polygon fill="#181818" points="600.15,514.19,609.6568,511.617,604.0299,511.0362,604.6107,505.4092,600.15,514.19" style="stroke:#181818;stroke-width:1.0;"/><text fill="#000000" font-family="sans-serif" font-size="13" lengthAdjust="spacing" textLength="34" x="683.59" y="392.4384">Tiene</text></g><!--SRC=[bLDDIyD04BtdLopUBQR5Imv2hKMGLei6yJhTZEsM_GZxKL3n9tdovhL_p4dMrjWqK7FPONRUUpDl9qjH84DL-XUcKCtHkcHPfRYmN6AIS0dEiPFxu24TPAmwJzXRmkWREm-5oHXmBzPGfsP1-m1I551aREWjE2ZYpHKwBpHLJsHOGVA-Otx4vUQ31sdIZEtYhSG8Ik2HBJqxgrDJKw0adgVfDZDq0hKtBcFdCP6BaWekWsl8v635Cv1637O2ndcgJNk3NsYis2UOWQLPY206Mu9Re-OMCpO57L3ITA1DlDXyARGLz-17oLfqfT6ekO3ePDha9-kDhWLYjA_m0DeBM1XslVbK-1hzHgk4CrLJ3bOa5msPcyffccE57bXkXIBtBSYsNBzJxYQ0PhdXy5TeP7GHk3UsgJHs9T9Gid5BIdjBStfwqVdQ6RlZeOI3a9RnP0Njfr6LbqaNOwzt63gHk22T0sx_7r6trrgi2ji0z8y6T4mIJMYhrvsjZyFr_uixq6HEVnbsZzNvid4dCFa6]--></g></svg>